FILE "ps1_solo_noble.bin" BINARY
  TRACK 01 MODE2/2352
    INDEX 01 00:00:00
  TRACK 02 AUDIO
    INDEX 00 00:15:25
    INDEX 01 00:17:25
  TRACK 03 AUDIO
    INDEX 00 01:39:55
    INDEX 01 01:41:55
  TRACK 04 AUDIO
    INDEX 00 05:26:06
    INDEX 01 05:28:06
